<svg id="Layer_1" data-name="Layer 1" xmlns="http://www.w3.org/2000/svg" viewBox="0 0 1806 2655"><defs><style>.cls-1{fill:#fff;}.cls-2{fill:#0070d4;}</style></defs><title>always-with-spirit-rear-jacket</title><path class="cls-1" d="M1806,2655H0V0H1806ZM898.28,12.63v.07c-648.63,2.31-690.46-22.29-793,70C29.37,145.8,37.44,234.91,35.15,315.07c-1.32,84.44-.23,167.35-1.64,251.84-1.7,403-2.94,804.37,2.76,1207.35,7.4,676.37-28.2,691,71.93,795.13,73.41,70.23,137.8,63.45,199.86,68.74,69.09.29,138.93,1.63,208.5,2.62,340.12,2.33,678.17,7,1018.19,4.44,137.66,5.13,222.88-86.82,242.1-211.36,6.85-123.14,1.1-244.41.93-367.75,1.14-464.12-7.39-926.44-9.42-1390.55-.49-276.48,6.38-456.07-9.43-504.25-60.4-204.14-299.74-154.75-396.53-160.4C1207.52,13.8,1053.24,12,898.28,12.63Z"/><path class="cls-2" d="M898.28,12.63c663.26,3.07,690.05-26.11,798.78,58.75,80.86,71.6,69,156.26,71.32,225.2,3.15,106.19-.59,209.86-.05,316.26,1.36,605.28,14.61,1207.6,9.55,1811.93-10.42,114.79-99.09,218.45-208.25,218-346.41,9.06-690.21-1.61-1036.57-1.78-133.91-4.14-300.61,4.64-353.93-23.67C2.49,2530.5,41.78,2383.75,36.41,2276.26c1.41-165.88,1-330-.12-495.43-5.71-432-4.94-863.91-2-1296.22,2-126.94-7.22-282,23.14-340.49,94-168.63,276.84-125.43,376.4-131.82,155.43.34,309.07-.14,464.47.4ZM1312.51,2603c131.37,1,231.55,6.46,294.2-5.7,166.53-64.09,132.39-257.78,136.08-286,.25-89.39-1.57-175.28-1.16-264.42-4.58-606.32-14.39-1210.43-13.15-1816.61,2.46-52.59-22.3-105.71-65.25-137.9-63.74-57.69-152.65-41-230.92-42.57-123.42.62-245.71,2.37-369.3,1.92C172.7,54.91,239.39,32.25,142.78,97.92,55.42,159.38,76.05,260.54,71.5,345.6,69.88,477.47,69.7,608.29,69,740.24c-1.8,497.52,1.86,993.74,4,1490.84,1.81,103.64-6.95,195.16,8,229.23,63.64,183.34,261,128.88,401.63,139.12C759.41,2600.13,1036.87,2602.11,1312.51,2603Z"/><path class="cls-1" d="M1312.51,2603c-352-3.16-708.32.46-1059.87-7.28-131.55-17.79-190.15-115.34-180.36-233.86,1.07-76.16,1-151.05,0-227.24C70.9,1667.12,67,1201.24,69,733.66c4.46-575.51-11.48-561.89,73.78-635.75,68.5-53.28,129.36-47.85,194.76-46.84,60.1,0,116.32.1,175.65.11C705,54,897,50,1089.06,51.8c319.18.69,453.47-8.28,496.88,2.7,84.77,17.38,149.23,96.29,142.52,182.45-1.2,939.74,16.52,1544.63,13.54,2155.42,0,81.41-45.06,162-118.6,199C1518.94,2618.66,1423.87,2599.5,1312.51,2603ZM749.93,1223.76h3.21c3.31-25.27-16.56-53.07-23.46-77.48-28.42-85.5-41.57-89.24-41.66-103.8,13.61-82.33,81.3-144.58,162-147.37,36.88-2,67.94,14.13,104,19.36,88.6-8.54,134.73,1.49,165.2,85.28,14.63,19.47,27.13,35.13,34.51,58.81,17.72,39.84,3.58,128.32-15.31,122.38-64.09,2.21-207.08,86.58-200.72,93.33,115.62-46,248.39-129.51,347.89-23.45,33.25,43.85,11.57,82.83,30.42,117.31,7,14.47,15.29,26.51,12.11,43.91-13.57,79.56-.31,102.76-8.16,138.53-28.75,116.48-122.59,115.48-210.71,93.86,16.82,38.27,64.66,29.47,99.45,34,88.13-5.8,122.33-69.92,137.87-132.48,4.24-34.26-6.86-68-2.73-102.45,14.55-59.33,1.41-63.2-12.8-100.07-8.15-21-6.93-40.37-8.7-63.19-18.15-84-97.93-95.82-164.72-103,41.49-85.69,23-134.68-24.43-198.24-35.23-73.56-69.67-95.4-138.78-91.09-75.09,11.68-116.59-24.85-162.92-15.77-78.83,11.9-136.39,80-156.09,154.48-13.57-2.75-17.51-16-28.6-23.67-7.06-6.52-17.81-6.88-21.92-16.53-4.61-42.57-.8-85.17,3.43-127.84,14.27-229.74,171.15-414.81,321-436.58,57.5,70.67,137.75,119.63,149.9,115.47l-8.35-13.06c45.44,5.14,87.35,67.43,97.65,55,10-29.58-2.14-63.72-7.5-94.28-19.87-59.7,3-26.73,26.22-49.08-176-199-160.1-153.2-246.51-177.75-35.18-9.89-64.5-21.49-96.93-39.53-22.06-12.2-41.77-10.06-46.45-21.29,54.4-37.08,110.28-45.93,143.87-61.58,116.31-65.27,37.88-44.89,6.7-46.27-75.31-8.13-99.82-16.17-151.33-3.61C687.24,127.13,695.4,201.12,677.7,205.71,574,253,503,321.64,443.08,404.62,402.27,241.42,354,258.56,262.92,171.07c-30.57-37.65-27.63-67-37.5-66.78-81.82,188,172.46,247.4,159.3,381-5,46.92-25.72,90.75-31.93,138.1-14.27,68.28-7.07,81.48-17,90.68C206.72,580.81,154.91,449.53,108.93,424.67c-5.14,1.23-5,6.39-2.44,10.73,20.57,76.33,18.64,156,56.79,228.52,23.06,50,59.84,85.49,101.67,120.15,62.32,49.34,86.21,21.19,79.25,94.45-180.15-23.93-260.42,146.55-256.87,237,3,16.49,53.44-22.63,60.9-27.88,63.2-40.86,157.19-182.92,228.27-115.53,51.18,68.4-9.93,39.77-39.27,76.71-51.33,124.6-113.06,194.61-64.17,316.51,10.59,27.55,50.57,86.39,76.23,61.48-105.68-75.44-77.9-213.6-20.05-306.77,15.13-21.92,13-50.63,34.35-67.65C430,1022.68,458.38,998.16,505.41,989,671.41,956.72,720.08,1171.71,749.93,1223.76ZM762.57,2184c-72-6.86-148.11,4.79-218.74,25.92-39,61.27-64.47,137.42-128.48,181.89-149.23,103.7-114,58.21-99.32,6.27,51.59-150.58,122-157.38,113.75-172.32-34.2,8.36-45.5,24.92-69.84,39.92-18.82,10.92-36.95,13.84-57,22-43.08,14.56-61.08,50.78-87.88,52.75,42.07-65.26,138-119.12,195.91-132.24,25.78-7.59,49.71,1.68,75.42-6.93,197.73-53.29,191.06-31.63,234.64-41.73.08-.9.17-1.81.26-2.71-32.85-12.79-236.39-83.52-201.8-99,80.9,24.09,170.23,22.68,249.25,58,26.86,9.53,43.64,30.4,60.72,33,75.78,10.83,146.92,19.31,166.32,10.53-44.66-43.9-108.39-71.7-150.19-119.89,77.8-.53,141.6,59.09,193.3,111.79,22.28,27.81,104.19,14.91,121.44,16.74,108.33-18.87-105.55,94.16-86.1,97.47,40.44-7.62,126.44-72.43,129.27-99.85,61.8-21.44,131.71-34.2,186.17-76.61,17.65-13.83,32-7.16,41.48-23.13-185,23.7-205.53-60.59-337.87-69.07,108.08-47.29,265,66.54,361.42,51.12,48.28-13.52,70.54-66,103.73-99.75,34-43.3,106-188,79.36-205.7-8.38,4.33-10.34,11.74-13.89,21.19-31.52,97.42-186.29,137.79-259.08,145.24-98,13.58-257.6-46.35-228.37-76.63,4.12-13.33,33.12,13.55,41.17,14.5,30.62,12.46,60.85,21.81,93.13,30.49,160.8,28,347.85-50.65,369.57-221.28,9.9-44.85-18.39-165.33-29.83-106.3,74.91,268.75-245.59,379.76-439.65,270.14-33.47-16.51-26.32-25.92-28.76-49.82-3.58-28.22-11-53.89-21.24-80.24-24.5-68.23-130.42-203.27-175.74-196.29,164.9,116.79,276.47,414.4,29.81,425.66-37.19,7-57.94,47.16-96.27,49.37-41.73-5.62-84.74,3.32-125.44-6.15-151.29-67.37-87.36-259.26-42.75-376.43l-1.88-.77C633,1696.28,653,1829.63,566,1853.49c-58.74,14.9-117.54-6.3-160.69-46.28-19.76-15.74-45-23.6-61.64-43a83.69,83.69,0,0,1-14.14-22.32c-9.17-35.22-33.29-49.8-51-74.33-49.15-72.45,23.54-166.54,78.25-202.78,138.06-78.61,227.11-47.46,267.79-64.72-53.9-19-121.09-9.75-177.51,3-170.72,34.19-265.28,224.07-169.87,297.68,51.54,55.52,41.62,91.79,106.31,122.37,37.19,10.93.67,43.54-.81,67.69-18.83,67.65-17.24,122.08-24.05,176.17-74.48-31-125.75-311.3-141.53-334.94C180.79,1620.34,123.5,1557.42,108,1568c23.38,75.82,9.8,160,26.07,238.67,16.94,137.18,97.8,269.81,225.22,330.78,13.52,9.9,11.84,68.13,34.1,42.83-5.82-70.24-46-61.22-81.7-92.35C148.92,1958.69,143,1772,140.9,1616.63c77.36,107.48,82.84,249.56,136.42,369.19,17.23,45,67,117.73,100.31,111.35,8.11-16.77-1.29-36.37,1.83-55.65.48-35.58,20.52-229.8,54.38-184.85,2.58,5.73-.11,7.86-2.21,14.94-64.51,180.58-5.63,354.49,9.71,294.77-26.06-74.35-21.76-155.27-7.1-231.62,5.94-24.09,16.63-64.84,24.17-65.5,114.25,18.42,129.17,12.26,177.71-34.55,11.56,70.4,57.49,133.35,116.33,150.7,29.08,10.33,57.55-1.31,87.91,1.34,79.3,14,85.45-22.72,136.42-38.89,89-19.68,98.52-11.87,145.84-74.09,49.16,18.69,98.55,48.92,154.18,53.75,134.6,15.13,229.38-22.19,324.77-90.15-30.12,69.57-126.51,196-146.79,194.27-114.37,0-213-85.2-329.47-63.67-43.94,9.75-85.2,33-92,53,97-12.32,130.54,7.23,198.19,41.94,41,21.61,76.64,21.54,113.55,30.67-103.06,57.85-284.58,69.17-296,39.62C988.31,2063,899.43,2006.87,804.1,2020.83c-8.63,23.1,140.93,119.6,141.89,121.84l-.82,2.4c-38.33-.69-79.21-8.47-117.42-16.35-34.22-26.65-71.22-45.68-114.21-55.09-129.51-23.11-164-16.94-250.55-52.43-5.47,28,71.21,81,81.85,85.52,47.2,27,90.14,31,89.71,40.73-58.53,13.6-118.77,27-177.91,37-105.18-1.79-192.33,71.8-255,149.53-11.86,18.23-19.32,21.63,7.07,24.44,17,8-73.62,106.72-73.33,109.85,146.45,19.37,146-48.75,148,12,246.05-77.06,230.54-238.11,284.53-257.25C657.83,2198.11,715.8,2207.45,762.57,2184ZM596.23,2346.64c94.11-57.3,185.46-71.38,268.94-107.9,29.75-8.37,54.67-32.21,83.83-41.26,96.21,5.2,123.4.4,132.32,7.45-130,71.76-178,153.74-179.84,200.73,144.46-92.86,211.28-109.3,237.46-128.81,33.9-20,63.28-41,88.91-70.36,29.78-14.62,65.42-22,96.7-30.18,2.53,39.71-3.28,86.2,3.16,127.87,27.89,162.11,16.33,177.51,21.56,235.79l2.25.8c58.38-71.37,71.61-168.69,75.71-256.67,53.44-47.15,88.52-106.28,97-98.45,1.57,111.43,20.66,192.09,21.62,271.69-3.85,89.87-15.43,103.06-8.21,106.68,88.29-25.38,126.62-158,128.5-229.22,2.63-97.37-35.48-180.78-46.85-259.86-11.64-72.11,35-136.66,52.28-205.32,39.47-136.39,46.06-292-16.56-406.92-16.39-31.47-23.58-23.15-19.3,5.49,10.87,22.35,19.27,45.86,27.39,70,11.86,32,14.5,66.56,17.75,100.78,9.26,175.79-55.32,270-80.11,388.36-9.28,86.85,34.67,166.51,40.28,252.37,17.32,152.83-65.59,253.82-82.27,250.06,12.83-147.23-11.85-233.49-14.14-329.65,7-241.6,100.25-303.94,90.67-334.27-115.75,164.47-84.16,256-130,298.89-18.68,26.69-78.9,97.61-83.08,85-19.31-28.48,115.29-106.72,97.87-166.74-33.1,41.31-62.3,87.5-105.92,119.82-8.79-24.26-.72-73.88,12.71-80.89,53.89-35.53,133.41-93.41,127.18-131.79-102,103.22-125.25,101.9-146.28,124.8-32.19,58.54-3.82,126.67-4.94,189.85,3.46,82.36-24.93,166.5-38.85,177,2-130.69-46.54-257.29-8-347.84,1-2.77,2.35-6.77-3.25-9.95-22.91,41.74-79.51,42.53-121.33,56.72-75.75,68.23-108.57,86.05-172,113.45-43.87,19.66-79.81,46.2-123,67.23l-1.83-1.82c84.68-129.89,213.89-155.22,209.52-168.34-66.93,5.42-138.14-17-205.62-9.71-98.46,53.25-198.54,82.63-292.51,112.24C743.35,2189.47,900,2187,891.68,2174.17,711.61,2166,585.68,2307.47,596.23,2346.64ZM1601,1049.5l-2.87.55c2.48,78-7.79,158-6.87,235,11.12,19,7.16,41,6.12,62.55,1,18.31,5.93,35,5.35,53.49,2.54,123.24-48,200.48-132.45,263.08-3.51,2.85-6.34,6.27-11.77,2.07,16.47-87,14.1-177.53,33.63-264.92,12.13-45.28,32-60.92,50.74-89.56,8.13-24.78,12.33-24.06,24.39-37,14-54.71,16.07-173,10.28-176.41-40.94,64.49-105.8,171-133.45,172.41,91.23-256.22,146.06-189,123.5-284-7.88-49.48-14.54-97.06-33.09-144-12.42,20-7.21,39.63-1.73,61.1,35.74,151.95,17.2,123.63-14,174-50.58,66.71-107.32,218.85-98.93,230.45,88.9-31,119.1-134.39,138.05-141.46,3.61,30.16-1.32,67.95-8.7,97.78-24.09,21.6-20.07,26.29-28.22,47-29.23,34.47-50.36,72.67-56.18,118-10.53,93.38-21,186-30.19,277.34,167.06-80.1,209.61-237.25,179.58-356.5,4.52-40,2.78-45.73-6-73C1613.83,1176.16,1623.78,1090.65,1601,1049.5ZM742.06,2384.56c15.27-6.49,37.85,14,49.9,17.54,184.4,112.11,248,4.84,348.61-36.66,71.53-29.24,78.63,7.88,104.63,2.08,25.1-15.79,93.59-50,72.71-69.37-36.74,12.16-67.41,61.56-95.47,44.46-183.63-24.2-192.31,170.22-434.51,39.45-31.48-14.12-62.28-25.13-97.36-23.9-17.16,3-9,11.86,3.66,15.89,42.27,21.23,101,102.13,94.54,105.74-86.9-7.28-173.62-46.56-242.16-101.17-14.82-10.64-24.24-24.25-40.35-34.06-19.2,7.39-6.05,25,5.71,33.14,142.91,122.9,222.15,112.59,304.21,131,85.45,30.94,92.85,49.48,168.45,35.71,110.68-19.57,141.51-142.26,227.22-168.68-62-25.15-135.94,119.7-186.43,132.75C863.52,2576.8,776.76,2423.58,742.06,2384.56Zm-3.83-1780.4c102.91-58.73,164.22-21.18,245.33,5.62,86.59,37.89,119.14,39.73,166.76,57.09C966.37,727,784.13,578,693.06,668.53c-22.63,79.61-45.41,174.67-47.75,264,1.56,29.28-10.51,63.92,19.33,69.64C660.21,863,695.4,650.5,741.22,656.36c75.62-9.7,143.44,25,216.59,37.37,79,11.55,182,10,222.43-28.21-4.82-11.06-17.56-8.74-28.19-13.86-177.86-49.52-263.46-126.43-376.29-82.25C812.29,498.75,961.84,453.08,956.94,447c-1.42-28.35-70.22,17.8-79.67,19.88C795.5,507.43,739.16,578.27,738.23,604.16ZM859.36,1427.6c15.09,20.4.91,24.29-4.12,40.6,1.15,17.82,24.33-7.46,24.48-13.65,2.46-22.2,8-20.2,17.37-31.37,11.43-14.86-.62-29.47.77-45.67,5.39-41.89-6.05-32.55-20-46.28-17-21.9-44.79-37.93-70.77-31.33-32.21-5.89-29.73,13.17-55.78,10.77-43.64,13.55-19.28,38.35-32.8,54.43-23.52,15.82-35.75,13.8-33.49,43.64.41,5.63,1.32,10.31,5.26,14.82,25.3,10.68,7.19,30.63,21.8,45.85,6.51,8.89,19.86,7.76,27.17,15.74,13.31,33.36,30,34.37,57.14,19.49C879.47,1512.35,831.39,1460.85,859.36,1427.6Zm662.4-643c-49.75,128-71.46,236.94-187,305l-1.66-1.72C1493.43,711,1526.88,812,1493.41,712.28c-21.44-70.34-73.56-174.16-88.24-171.12,4.38,29.24,21.93,56.87,34.71,84.16,21,46.83,56.2,134.95,45.1,145.06-84.9,108.39-100.6,155.2-128.38,218-19.82,40.15-29.3,82.66-55.44,119.23-4.2,4.8-15.33,21.2,1.06,17.81,109.11-46.75,160.59-123.59,193.18-207.82C1513.26,881.48,1534.12,790,1521.76,784.56Zm81.33-620.23c-104.43,155.49-101.5,245.37-303.79,253.05,35.21,27.21,84.39,6.68,123-6.45,128.91-44.42,134.34-160.46,186.47-228.8,10.89-20.15,61.92-47.2,17.17-42.77-195,51.5-120.25,168.6-358.41,224-38.37,13.37-79.09-14-119.85-8,5,22.56,28.58,15.84,46.81,21.6,20.52,2.35,37.15,10.81,58.15,7.84,50.3-13.12,99.37-23.42,145-49.32C1474.84,291.55,1518.91,177.36,1603.09,164.33Zm-22.82,789.36-2.37.86c3.5,39,25.71,73.81,39.58,110.57,23,64.15,53.11,156.9,77.76,161-4.15-50,13.91-90.73,12.54-123-8.63-193.72-130.92-209.95-137.2-282.63C1515,642.68,1515.41,659,1492.7,642.69c-5.1,9.32,5.84,19.53,8.64,30.19,34.05,81.26,44.56,148.89,63.25,185.8,76.8,82.18,156.23,199.69,111.16,314.16C1642.53,1101.31,1626.93,1019.75,1580.27,953.69Zm-402.08-566.4c7.46,20.76,27.54,14.53,44.45,23.1,34.25,14.56,64.53,29.28,77.65,48.53,26.45,220.71-70.42,250.43-99.53,320.41,6.88,22,112.64-29.05,115.54-36.62,121.12-83.05,93-246,38.1-275,65.64,136.08,16.27,252.41-121.66,296.24,3.24-14.74,15.48-24.54,24.86-37.38,59.22-65.74,67.31-141.2,64.56-213.74-4-26-2.15-53.32-9.33-64.88C1276.33,414.45,1228.31,389.36,1178.19,387.29Zm491.53,358.19c-88.45-75.18-157.37-114.1-196.61-157.92-7.9-7.14-12.66-17.47-25.9-14.07,42,69.92,81,82.34,111.87,105.64,51.12,34.61,96.71,71.68,135.48,119.74l2.32-.67c-7-184.16-152.48-269.39-242.83-284.5-11.47-1-18.7-4.19-27.28-13.39-60.78-58.27-65.62-66.95-86-60,88.72,78.06,72,87.19,99.81,89.11,90.81,11.11,170,71.59,211.46,152.09C1663.07,702.24,1680.31,737.5,1669.72,745.48Zm-1133,434.59c4.9,15.07,26.71,22.13,36.22,31.85,33.31,26.83,62.76,56.92,85.58,92.34-115.63-79.82-224.26-125.14-233.28-114.59,200.74,88.87,220.61,151.14,255.43,149.19,24.43-2-6.62-36.6-10.6-45.57C635,1237.72,563.54,1190.26,536.76,1180.07Zm492.92,583.45,2.71-1.78c-22.82-89.22-75.17-170.36-125.8-243.89,58.44,33,90,104.17,128.79,158l2-.83c-23.69-93.09-142.68-221.54-155.43-161.56C946.89,1590,989.17,1675,1029.68,1763.52Zm135.19-453.95c-47.73-6.57-252.68,10.48-238.19,50,.25,12.84,16,5,25.07,4.72,86.29-16.74,173.12-1,257.36,4.55-69.06-35.67-204.41-22.94-231.8-25l-.48-2.73C1049.89,1314.74,1169.45,1325.3,1164.87,1309.57ZM513.17,1732l2.4.86c40.37-45.75,73.83-90.41,100.63-103.64-12.77,41.59-54,99.52-43.86,113.29,84.46-159.43,157.6-218.84,133.44-231.91C627.22,1604.21,531,1677.7,513.17,1732Zm333.7,59.15,3-1c-10.21-78.21-28.8-156.31-36.23-235.47-34.25-96-23.31,253.5-4.91,246.55,0-53.28-6.06-108.16-1.69-161.83l2.59-.14C822.21,1689,825.35,1743.24,846.87,1791.17Zm-200.3-417.85c-.39.76-.77,1.52-1.15,2.28-54.13-20.35-215.9-55.78-219.89-33.68,51.11,7.28,105.73,10.46,155.69,29,57.83,15.7,73.45,33.09,82,16.26,62.39-22.6-200.93-107.13-205-89.64C522.29,1316.91,590.65,1333.81,646.57,1373.32Zm-19.93,61.34-.23-2.5c-70.94,3.88-255.56,82.69-267.18,132,40.29-28.66,96.46-66.36,114.64-62.38-13.75,17.84-44.79,35.41-39.87,45.26C517,1484.35,563.77,1467.66,626.64,1434.66Zm518.81,51.74,1-3.15c-54.58-41-273.55-66-220.39-11.19,50.76,11.41,98.76,26.5,148,39.85.24-.7.47-1.4.7-2.1-46-33.76-92.13-35.31-106.58-48.66C1028.65,1450.93,1086,1476.94,1145.45,1486.4ZM911.24,1046l-2.89-1.11c-27.07,51-138.05,344.37-40.5,154.35,45.41-62,100.72-152.85,94.21-169.55-45.35,69.27-65.56,117.09-82.55,126.36C886.64,1118.93,905.5,1084.33,911.24,1046Zm670.07,1418.51c51.6-82.83-8.56-322.35-7.5-372.88l-2.52.35C1560.52,2216,1599.85,2339.38,1581.31,2464.55Zm-820.61-9c-.71-32-82.74-38.83-99.6-53.35-133.82-67.47-129.45-91.69-141.93-84.56-15,13,45.49,47.16,50.26,53C627.64,2410.33,691.89,2441.28,760.7,2455.59Zm10.2-1376.05-3-.54c-19.4,56.58-10.82,122.35,2,181,14.29,37.26,19.9-67.87,24.24-72.83,8.16-45.78,29.75-108.26,21.93-114.19-30.95,57.12-32.59,124-43.33,121.82C763.54,1157.81,770.13,1118.29,770.9,1079.54ZM175.5,1750c0,88.41,23,180,75.66,253.42,11,15.21,29.08,49.17,38,41.46C176.7,1866.74,208.43,1817.14,175.5,1750Zm969.43,708.2c35-2.91,219.22-87.66,179.34-112.47C1182.27,2444.09,1150.72,2421.69,1144.93,2458.19ZM951.67,1775.77l3.65-.85c-6-114.88-83.21-278.48-103.79-258.57C924.63,1651.78,923.73,1689.52,951.67,1775.77ZM398.12,1614.4l2,1.62c78.4-65,167.82-115.18,258.27-161.12-.31-.86-.63-1.71-.94-2.57C572.35,1468.7,414.39,1573.92,398.12,1614.4ZM447,1626.34c.64.69,1.29,1.37,1.94,2.06C644.13,1473.6,692.64,1476,683.41,1463.33,626.24,1468.62,448.31,1603.76,447,1626.34Zm236.4-136.86c-24.38-16.1-222.2,193.9-205.45,196.61C545.25,1619.31,615.43,1555.36,683.35,1489.48Zm467.17-215.79.4-2.15c-71.34-20.1-208.16,28.92-238,40.46-1.37,26.7,77.51-14.1,89.15-12.16C1051,1286.12,1100.07,1281.23,1150.52,1273.69ZM571.79,1121.38c-1.61,8.21,1.44,9.28,6,14.45,51,54.33,87.54,117,126.39,179.61C734.05,1283.14,588.41,1125.62,571.79,1121.38ZM873.33,2476.54c-.17.89-.35,1.79-.52,2.69,78.51,43.31,195-9.52,240.21-71l-1.33-1.8C1019.9,2474.25,975.12,2487.61,873.33,2476.54ZM983.27,1093.29c-24.24-16.16-134.44,174-131.06,177.48,22.06,12.63,40.51-48.15,49.47-56.85C927.55,1171.6,952.79,1132.59,983.27,1093.29Zm-86.62,675.6,1.94-.52C910.31,1731.17,862,1510.47,831,1538,888.22,1680.21,883.08,1713.29,896.65,1768.89Zm-296-684.48-1.68,1.54c89.68,143.93,98.33,180.21,117.66,206.34C730.13,1249,617.08,1088.08,600.61,1084.41Zm686.45-685.16C1353.15,422.73,1488,357.81,1500,294.88,1400.11,387.41,1389.13,378.54,1287.06,399.25ZM728.11,1742.42c15.1-66.19,30-129.08,49.55-197.55C755.69,1495.54,707.65,1754.26,728.11,1742.42Zm424-324.42.39-3.08c-17.38-13.54-277.12-34.63-204.08-3.81C1082.27,1407.39,1125.45,1423.2,1152.11,1418Zm-124.95-294.84-1.62-2.24c-31.72,11.35-183.65,182.26-118.9,145C945.81,1215.06,986.39,1171.55,1027.16,1123.16Zm295.42-447.71,2.22.92c59-50.73,29.52-208.86,9.62-209.35C1350.58,568.44,1350.58,598.82,1322.58,675.45Zm60.91,1444.84-2.73-1.53c-47.17,69-17,230.31-8.08,230.8C1372.2,2273.44,1360.69,2195.39,1383.49,2120.29ZM1626.67,681.14l2.15-2C1574.16,598.86,1453,536,1453,557.7,1599.44,643.29,1567.9,639.06,1626.67,681.14Zm-69.81,692.09-3.14-1.37c-40,68.8-41.21,156.2-61.13,233l2.49.63C1523.45,1531.53,1536.92,1450.51,1556.86,1373.23ZM350.65,2411.77c48.94-1.14,148.58-124.75,141.78-156.87l-2.08-.72C453.65,2314.45,405.3,2367.46,350.65,2411.77ZM734.17,625.29c75.4-19.53,149.41-17.46,223.84-3.9C914.13,585.35,730.17,596.6,734.17,625.29Zm782.69,975.16,3.17,1.74c60.54-82.76,78-211.75,60.85-206.85C1570.41,1466.44,1547.71,1535.21,1516.86,1600.45ZM1398.26,997l2.68,1c45.51-53.88,71.52-125.15,96.22-191.07C1456.06,863.16,1429.39,933.8,1398.26,997Zm-598.58,256c26.15-62.47,38.6-134.63,59.85-200.14l-2.06-1.19C831.88,1089.24,784.67,1250.71,799.68,1253.07Zm-175,849.29-.87,2.4c56,20.11,113.15,33.51,168.11,60.18C773,2122.78,645.77,2098.32,624.72,2102.36Zm26.51-1011c20.29,56,52.89,110.14,72.42,168.4C773.7,1313.09,661.52,1087.1,651.23,1091.36Zm-184,1153.58c-97.69,129.59-122.24,132.95-121.1,143.18C380.67,2382.11,480.22,2261.68,467.18,2244.94Zm1194-1196.45c4.38-32.52-82-170.72-92.44-158.23C1598.29,943.05,1629.8,997.21,1661.21,1048.49Zm-120.54,319.59c-32.53,18.59-64.31,153.43-47.05,168.15C1506.4,1479.57,1516.15,1421.93,1540.67,1368.08Zm-28.93-206.93c20.12-25.51,69.37-91.85,60.15-96.39C1553.3,1068.36,1507.86,1156.47,1511.74,1161.15Zm59.08,144.66-2.31-1.19c-13.14,14.05-29.38,54.53-8.29,63.58C1560.19,1347.26,1568,1327.23,1570.82,1305.81Z"/><path class="cls-2" d="M749.93,1223.76c-49.06-110.48-95.24-254-235.79-236.45C457.58,996.82,413.38,1031,361.58,1054c-21,20.87-21.3,54.72-39.14,79-70.77,119.2-54.35,237.86,26.85,293.83-29.4,26.87-69.75-44.17-76.23-61.48C219.68,1232,301.8,1144.61,339.8,1045.48c48.63-38.24,80.56-8.61,35-75.34-42.42-41.95-110.08,8.71-137.84,39.68-30.8,30.2-62.15,56.94-96,83.46-60.87,40.33-56.64,33.83-51.12-12.84,21.89-133,130.5-220.76,254.34-201.92,7.67-65.17-21.17-56.85-38.42-68.29-66.52-36-122.77-99.53-144.73-151.52-52.17-118.59-34.28-179.07-55.52-225.34-1.78-4.12-.58-8.13,5.17-8.85C160.26,466.83,189.24,530.08,227,583.16c32.09,46.69,71.55,88.32,108.86,130.86,5.18-5.3,6-9.33,6.08-17.44,12.49-126.06,38.48-156.64,42.82-214.41.92-77.48-59.88-117.25-102.67-162.69-63.95-65.59-94.5-142.39-56.65-215.19,16.3,17.66,19.5,52.27,41.05,70.68C391.26,278.89,405,264.39,443.08,404.62,567.77,238.48,638.06,233,683.2,201.79c22-53,55.83-85.26,105.14-105.65,27-12.38,54.72-15.85,84.38-17.2,50,4.83,96.77,13.27,147.7,9.27,2.18,42.28-181.6,81.94-203.06,109.31,3.21,6.77,6.42,7.13,13.35,8.88,35,8.89,61,29.36,94.36,42.19,21.43,0,38,15.26,60,15.83,67.66,1.34,115.47,53,156.39,101.14,50.76,58.28,82.28,71.58,55.77,76.88-9.84,3.07-27.25,2.35-23.85,15.15,13.22,45.79,26.64,113.46,13.23,123-31.84-9.83-57.75-53.51-95.78-56.11l8.35,13.06c-31.09-3.2-98.12-60.94-107.06-67.69-29-24.81-32.08-45.36-44.65-48.21C809.16,447.83,715.7,571.18,663,694c-33.49,92.52-40.15,188.34-39.61,286.28.6,14.95,15.81,15.39,25.46,24.41,10.07,7.14,12.5,18.81,26.54,22,30.31-111.84,130.74-185.81,241.32-142.05,40.63,13.2,82.13-2.57,124,5.29,63.49,12.81,76.35,65.65,100.56,101.75,50.77,61.88,47.62,122.1,16.38,185.63,116.8,11.58,164.7,40.34,170,155,34.87,86.52,21.81,61.2,15.7,117.36-2.93,35.51,9.12,69.78,1.72,105-27.3,91.77-83.51,129-158.15,122.59-30.46-3.83-63.91-.29-77.68-32.79,152.65,40.94,226.26-29.68,212.57-178.91,10.41-86.78,8.54-62.24-11.11-110.86-8.07-25.39-.52-53.89-11.51-78.92-24-67.53-116-82.06-168.64-73.81-69,9.85-127.42,50.64-192.86,72.34,2.93-13.81,52.62-33.48,58.1-38.88,48.2-26.59,96.67-51,151.93-56.71,14.61-36,20.33-80.27,7-117.28-7.27-24.33-20.35-42.38-35.5-61.65-46.18-129.31-147.92-74.84-174-86.57-128.51-45.11-225.6,1.91-257.13,126.62,27.17,79,74,171.19,65,184Zm-366.75-584c-4.12-50,92.66-100.62,119-112.4,97.53-37.79,154.08-31.11,218.49-95.25l2.2,1.41C663.8,644,423.73,636.67,408.49,704c-24.42,88.39,15.72,216.18,46.56,268,8.39,19.63,55.26-26.89,144.58,1.66,6.77-3.06,3.63-12.93,4.42-21.71-2.22-70.83,9.93-138.31,24.42-207.57C677.9,574.25,785.76,450,941.66,403.19c-13-44.26-27.15-91.68-62.36-124.76-61.89-37.26-162.06-52.24-217.89-13.19,68.11,20.21,111.4,31.4,146.51,88.77,11.82,14.6,35.38,79,18.27,73.84-63-68.93-161.07-35.44-228.44-87.56-29.65-30.85-38.93,11.73-60.29,28.62C431.89,508,439.83,568.27,411.22,571.2,411,509.71,551.17,287.67,593,303.78c37.91,70.81,152.71,44,212.59,84.5-10.44-72.93-127.53-103.77-182.45-110.14,1-22,62.66-40.26,69.75-43.73-4.67-54.34,132.8-131.43,163.24-117-61.33,25.25-130.71,61.37-151.29,100.32,79.35-13.29,122.49-52.11,164.57-67.15,67.84-27.28,102.73-27.88,109.72-43.15C834,89.36,764.7,89.59,687.64,213.29,553.79,291.47,500.07,347.23,431,460.21c-5.47,2-6.59-2.79-6-9.13,5.21-61.85-15.91-124.38-55.94-171.75C315.88,222.1,260.5,212.5,229.44,148.7c-7.84,5.82-6.34,10.59-5.55,19,7,152.13,203,185.28,175.25,343.7-76.94,275.62-22.44,249-45.43,260.4-12.62-19.5-27.2-39.89-43.23-58.17C169.69,562.43,163.48,495,135.42,477.52c10,166.19,84.25,272.58,217.81,337.43,3.69,4,4.47,6.48,4.76,13,0,38.91,19.94,59.61,13.45,77.32C276.68,870.71,188.87,919.92,142.19,995c-21.18,34.1-41.39,79-32.19,94,84.29-49.82,143.93-162.12,231.15-154.09,53.91,2.69,47.22,25.9,70.37,59.62,5.64,8.7,7.68,8.6,16.7,4,17.63-7.8,8.33-15.78,2.85-27.86-33.36-63.29-45-129.89-48.85-199.85C367.66,636.56,482.47,643.5,562.86,596.61,605.64,575.21,694.58,491.68,683,480.35,538.66,548,480.6,521.66,383.18,639.72Zm691.74-125.18c-7.21-40.45-28.69-56-35.24-82.36-15.68-111.3-83.34-120.78-82-145,41.8,19.93,55.75,52.53,71.17,56.83,118.16,31.2,121.64,111.53,151.45,84.74C1034.92,265.18,1025.2,294.29,962.48,278.11c-16.29-10.25-34.25-8.49-51.42-15.85C855.79,222.6,763.89,203,757.43,225.06,1021.3,262,875.31,397.27,1074.92,514.54ZM1037.4,363.85c46.54,164.48,59.84,134,138,192.62C1176.11,474.3,1124.37,377.29,1037.4,363.85Z"/><path class="cls-2" d="M762.57,2184c-62.26,26.57-134,17.81-198.7,40.37-30.12,21.33-55,93.49-65.73,105.64-48.55,79.19-153.43,135.81-214.74,150.2-8.16-7.49,4-15.56-.82-24.12-46.64,7.15-96.86,24.64-147.19,12.13,120.91-147.66,62.89-98,55.43-115.51,51.68-90.31,176.43-176.65,271.71-168,56.92-13.74,114.23-22.48,172-37.31-23.74-19.61-65-22.44-92.2-42.13-25.47-12.2-93-71.61-78.11-84.54,100.18,43,170.38,34.45,246.24,52.14,40,9,79.2,25.13,110.74,51.47,36.79,15.83,97.78,19.36,123.95,20.68l.82-2.4c-42.23-28.84-87.4-58.73-124.16-96.4-37.11-31.44-14.71-28.62,17.39-27,86.8,2.07,159.73,55.64,214.69,119.41,72.4,34,251.27-18.39,291.1-45.08-169.33-26.12-163.65-94.59-311.74-72.61,112.7-137.18,319.09,20.42,421.51,10.68,53.09-22.56,144.11-182.16,146.79-194.27-110.3,83-253.35,118.39-384.88,75.93-51-13.42-88.76-46.61-96.51-38-46.37,72.09-92.93,56.2-146.23,73.47-88.56,45-68.89,44.72-146.36,37.57-106.59,22-174.37-57.35-191.47-151.63C581.24,1897,524,1878.64,458.41,1869.26c-12.57,7.78-18.85,49.84-22.81,59.42-17.08,80.68-20,163.57,6.7,241.46-29.41,43.16-41.72-107-40.27-117,.28-64.25,9.6-127.11,31.54-187-17.44-67.72-46.52,81.7-46.86,94.68-15.82,111.16,1.58,131-11.6,137.93-47.85-10.34-80.13-73.26-93.58-104.57-59.61-127.71-65.18-277-140.63-377.54.4,131.68,10.63,284.25,96.72,395.46,112.31,140.6,148.48,78.15,155.19,169.78-22.9,22.78-21.56-41.86-35.23-45.62C57.94,1980.11,146.85,1625.55,108,1568c127.26,35.91,149.81,460.3,250.65,498.92,16-261.18,71.71-217.82,22.36-245.21-77.5-42.9-60.49-85.37-103.81-121-60.16-51.48-40.15-114.29-10.49-169.39,92.68-171.69,349.46-145,357.87-131.28-65.3,13.26-136.11,4.64-199.89,33.06-111.4,34.53-183.47,138.68-155.64,218.08,5.7,12.51,11.43,19.35,20.65,30.16,46.22,45,32.05,60.53,55.61,84.62,21.43,21.92,51.31,31.21,74.74,52.31,43.46,42.55,120.11,46.21,153.05,32.66,52.45-20.42,59.69-75.61,73.83-117.47,16.67-52,29.5-103.63,61.67-148.39l1.88.77c-44.85,116.88-108,309.26,42.75,376.43,22,7.77,43.46,3,67.15,3.55,25.53-1.45,49.17,6.32,74.31-.13,31.87-14.17,54.76-45.34,91.24-49,91.4-7.83,129-43.71,132.22-127.75-4.79-119.37-79.49-225.24-173-295.57,68.72,1.49,172.73,172.1,181,210.43,28.57,82,5.62,93.69,31.84,108.29,213.49,127.5,524.43,2.37,454.18-270.35,12.92-35.86,29,56,28.74,61.81a211.79,211.79,0,0,1-5.3,76.35c-42.85,187.22-269.14,220.13-371.06,195.75-126.32-34-119.65-59.46-128.9-41.68-24.56,38.42,156.14,78.43,169.6,76.14,184.29,6.17,308.69-91.9,318.66-146.55,3.2-8.49,4.67-15.86,13.89-21.19,28.69,32.36-64.79,184.73-72.39,197-40.56,48.2-70.91,94.06-100.93,105.82-118.65,22.21-264-99-371.19-48.46,72.92,8.08,96,20.83,147.1,46.57,131.64,49.25,150.49,17.79,190.77,22.5-6.59,13.62-25,11.32-36.93,20.32-52.4,37.82-112.86,58.56-175.63,73.51-7.88,2-16.64,2.09-17.36,13-13,35.83-123.86,102.08-128,91.77,19.35-27.4,198-115.73,74.08-95.9-106.23,2.52-95.81-5.75-128.28-37.2-50.27-53.11-125.53-96.86-173.45-91.91,55.41,59.09,138.47,99.68,150.19,119.89-52.57,10-182.52-5.92-199.37-29.13-53.41-30.41-112.7-43.18-173-50.88-83.12-11.16-76-17.35-106.23-21.09-21.32,23.64,202.81,95.44,204.12,98.63-.09.9-.18,1.81-.26,2.71-109.23,7.41-169.66,23.71-242.7,44.24-137.73-6.21-244.22,103.35-263.27,136.66,33.54-7,55.3-45.46,90.52-53.73,74.18-20.42,84.26-53.23,124.17-60.9a6.89,6.89,0,0,1-3.24,9.23c-60.08,41.32-94.27,110.37-115.79,178.72-4.14,13.84-15.05,42.88-4,41.35,40.73-15.53,76.34-38.55,110.89-65.07,81.69-61.69,90.11-139.4,130.27-181.7C637.86,2182.6,730.63,2177.77,762.57,2184ZM350.13,2288.14l-1.73-1.55c-90.6,33.66-97.76,57.35-135.34,108.49-16.62,29.92-44,49.46-34.56,56.16,44.9,2.17,119.52-12.08,123.12-57.53C312.94,2354,332.4,2324,350.13,2288.14Z"/><path class="cls-2" d="M596.23,2346.64c14.84-109.31,205.46-183,295.45-172.47-2.69,9.64-13.22,6-21.8,9.45-92.25,16.79-193.89,69.21-224,110,20.11.62,40.63-15.33,61.73-21.09,36.76-14.31,71.55-18.62,107.59-34.18,45.23-17.74,86.39-39.26,130.36-59.29,139.3,5.93,168.28,17.8,198.45,12-8.12,14.62-30.24,15.31-44,25.08-75.6,39.43-138.46,95.56-165.54,143.26l1.83,1.82c61.46-34.85,124.62-68.54,189-99.27,79.84-46.38,82-68.46,108.12-82.11,115.27-28.93,102.53-34.25,119.25-56,6,4.46,4.54,6.17,2.24,12.87-38.4,112.64,14.9,229.21,9.06,344.92,85-145.3-2.9-300.78,43.79-366.82,110.93-82.45,105.89-88.33,146.28-124.8,4.87,45.61-93.54,108-110.09,120.59-35.73,15.08-37.76,59.67-29.8,92.09,43-31.76,72.41-77.88,105.92-119.82,11,73.08-124.67,142.75-96.6,168.13,40-23,67.35-70.09,97.26-106.69,12.1-15.37,8.76-34.88,15.38-54.1,30.79-123.52,61.88-169.66,99.15-224.45,5.2,12.15-8.08,22.65-12.16,35-143,264.36-39.42,408.67-64.37,628.91,28.39-3.24,66-90.27,67.71-100.31,57.3-181.55-50.84-303.53-22.35-417.19,52.07-172.34,96.51-273.79,70.77-425.51-5.66-42.13-23.61-81.7-39.66-121.06-4.46-39.73,11.11-20.19,21.33-.29,134.66,289.9-71.1,538.1-37.25,609.58,25,132.66,67.7,218.6,35,337.63-11.11,56.3-72,151.4-118.48,149.95,24.23-149.83-11.72-253.83-11.61-376.87-7.19-1.65-7.54,1.4-12.35,6.51-27.59,33.88-56.7,64.4-86.33,95.43-.2,88.74-17.84,182-74,253.18l-2.25-.8c-.79-154.63-25.27-227.54-25.34-297.13-3.38-27.42,8.73-68.65-2.38-67.13-141.6,37.47-82.11,41.64-166.45,91.12C1119,2291.74,1080.93,2306,1041,2324c-49,25.67-92.5,53.21-139.5,81.65,13.28-94.8,103.38-155.36,179.84-200.73-21.31-9.14-46.58-1.6-70.32-4.73-39.23.78-59.93-10.93-83.65,6.68C823.78,2271.57,699.25,2281,596.23,2346.64Z"/><path class="cls-2" d="M1601,1049.5c29,63.85,7.16,192.55,6.64,219.34,16.67,69.42,4.41,57,7.44,87.06,36.1,153.65-51,291.09-180.46,351.09,11.15-98,18.92-202.57,34.76-301.79,10.41-37.79,29-66.16,52.83-95.7,6.32-24.38,11.22-30.62,27-44.84,9.13-29.88,12.4-88.59,8.71-97.78-41.25,48.9-69.66,121.56-138.05,141.46-3.91-15.94,6.69-33.44,10.76-49.84,107.82-296.07,151.49-144.28,100.68-361-5.17-19-8-35.57,3.21-54.73,23.29,60.31,44.75,190.65,35,197.67-69.3,85.77-100,154.6-125.45,230.28,50.05-19.27,122.79-163.26,133.45-172.41,7.37,53.56-.88,116.85-8.33,172.31-3.84,11-16.77,14.1-20.74,26.28-31.16,62.27-54,67.63-62.46,132.74-11.83,80.32-13.48,157-27.51,236.6,4.62,3,6.86,2.61,11.77-2.07,75.63-55.61,117.06-119.7,129-201.94,5.82-41.2,2.91-77.35-1.9-117.77,5.36-51.19-3.59-43.48-8.6-70,7.66-75.75,8.79-148.75,9.31-224.41Z"/><path class="cls-2" d="M742.06,2384.56c71,91.85,111.6,133.71,200.34,140.94,147.05,10.94,186.88-178.19,269.45-149.79-91.66,33.22-125.79,156.76-230.19,169.22-97.68,16.82-118-29.79-171.2-37.37-145.72-20.18-207.12-53.75-291.73-123.76-15.3-11.13-35-33-10.84-38.82,14.15,10.11,24.46,23,38.73,33.64,69.43,55.6,154.44,92.87,242.14,101.18-4.08-28.54-76-98.08-89.58-103-16-6.5-30-17.35-3.64-18.68,34.93-.45,66.13,12,97.88,26.5,239.74,130.42,272-86,440.68-38.22,31.38-1.79,66.37-49.51,85-47.65,18.83,22.72-65.87,62.29-76.32,69.54-57-16.23-62.67-20.07-107.68-.45-124.08,67.24-172.71,116.39-299,58.52C796.2,2405.81,753.23,2376.41,742.06,2384.56Z"/><path class="cls-2" d="M738.23,604.16c20.91-93,237.44-200.93,217.42-154-83.81,31.93-175.22,92-179.89,119.29,92.26-37.55,185.6,15.28,271.61,47.83,64.05,26.13,134.61,37.87,132.87,48.28-116.53,86.5-356.08-13.34-388.55-9.79-53-3.55-67.22-1.88-79.63,26.63-40.91,101.77-48,211.24-47.42,319.83-32.14-6.92-16.49-46-19.34-69.64,4.81-116.19,29.76-195.4,47.76-264,73.88-68.2,207.9-.92,279.31,6.36,67.94,11.62,161,5,177.95-8C922.09,602.43,867.84,530.66,738.23,604.16Z"/><path class="cls-2" d="M859.36,1427.6c-24.9,36.44,6.35,58.21-27.42,75.33-22.59,10.49-29.47-4.75-44.62,6.19-43,18.94-41.31-23.49-52.38-27.76-8.64-3.46-20.37-6.54-25.11-15-5.91-9.28-4.92-18.28-5.24-30.25-6.94-14.17-21.34-10-19.67-29.39-1.35-38.79,24.21-26,36.25-45.9,4.54-27.47,1.25-42.78,30.17-50.11,24.73.89,25.18-10.54,38.88-12.08,15.42,2.94,29.62-2.39,45,.85,17.1,9.76,34.27,18.11,45.6,34.93,23.85,10.5,18.64,25,16.82,46.09.94,14.85,8.94,32.08-.57,42.72-17.8,16.87-13.73,15.79-18.12,33.44-3.13,10.84-26.84,28.62-23.21,7.34C865.32,1454,870.75,1440.28,859.36,1427.6Zm-42.8,28.05c28.09-9.46,28.66-36.3,8-42-25,13.27-41.65,3.63-46.2-20.1,7.49-29.1,11,5.93,21.23,11.89,31.08,3.88,23.3-29.41,1-38.52,15.35-11.64,22.58,9.71,38.06,9.29,14.24-2.83,4.6-28-11.17-21.88-19.19,2.72-16.1-37.39-41.79.57-6.33-18.75-24.15-23.73-26.13-5.3.22,8.47,10.78,14,3.32,22.82-31.42-27-36.55,5.07-22.8,29.12-23.86,32.6,13.52,48.81,25.72,12.75l2.41.11c12.21,33.57-27.12,45.08-49.62,26-5.48,31,28.15,28.37,42.66,13.69,5.06-1.14,8.16,14.56,16.75,15.38,35.11-1.06,17.14-27,.86-38.43C791.23,1413.83,813.31,1440.58,816.56,1455.65Zm53.23-105.38c-9.08-40.16-19.38-8.86-27.66-14.79-3.4-34.24-29.81-26.46-29.35-12.06,22.48,36.93,42.92-.7,48.86,48.91C889.35,1389.21,902.21,1348.66,869.79,1350.27ZM793.5,1484.88c18,14,44.57,8.89,39-15.6C813.66,1453.53,806.57,1471,793.5,1484.88Zm-69-82.66c-.14-27-23.33-19.18-27.12-1.13C697.23,1429.3,721.65,1415,724.54,1402.22Zm32.54,71.71c-11.31,29.28,31.19,32.27,33.1,12.94C779.42,1481,769.1,1482.86,757.08,1473.93Zm97.6-68.63c-.57-22.64-25.45-31.49-22.57-2.79C835.73,1410.32,855.57,1421.92,854.68,1405.3Zm14.92,13.82c14.26,3,21.34-12.22,13.56-23.94C863.9,1375.13,869.1,1407.82,869.6,1419.12ZM765,1326.33c-31.5-14.94-33.46,32.37-17,13.39C752.53,1332,758.88,1332.52,765,1326.33Zm32.83-8.08c-.91-10.34-16.44-7.2-16.68,2.82C782.08,1331.18,797.52,1328.91,797.79,1318.25Z"/><path class="cls-2" d="M1521.76,784.56c14.14,17.67-17.27,112.65-19.74,118.24-21.48,52.2-46.2,105.42-86.73,146.93-38.36,40.09-158.9,112.75-110.49,53.48,41-74.87,63.25-156.11,106.85-229.73,44.69-71.57,76.32-100.08,76-111.94-25.08-118-76.35-173.34-82.47-220.38,37.28,16.47,114.47,220.37,97.37,231-98.54,137.44-126.09,222.72-169.42,315.73l1.66,1.72C1484.41,998.14,1494.23,821,1521.76,784.56Z"/><path class="cls-2" d="M1603.09,164.33c-84.16,13.21-145.57,143.5-202.8,169.65-70,36.65-152.58,61.67-205.8,43-18.1-5.61-42.13.7-46.81-21.6,36.68-3.65,72.2,12.83,107.83,12.09,253.8-61.35,194.62-191.21,370.43-228.14,36.26-3.63,10.81,12.4-1.39,24.37-75.46,88.13-72.8,196.83-187.52,241.71-44.85,15.64-98.59,41.18-137.73,11.94C1522.27,409.79,1513.4,281.28,1603.09,164.33Z"/><path class="cls-2" d="M1580.27,953.69c59.2,90.65,66.66,165,95.48,219.15,61.85-173-124.26-310.85-118.07-328.45-60.31-207.18-71.5-190.47-65-201.7,39.48,14.82,75.38,179.81,83.06,196.09,10.19,36.38,50,53.17,68.54,85.62,111.12,156.8,41.17,224,50.94,301.68-36.39-15.7-69.94-147.67-77.76-161-13.91-37.2-35.67-70.12-39.58-110.57Z"/><path class="cls-2" d="M1178.19,387.29c42.92.92,83.29,21.24,117.91,46.7,32.43,16.57,20.5,57.42,26.57,88.49.68,182.88-74.1,190.65-89.93,241.46,147.16-47,183-169.34,121.66-296.24,74,52.58,51.25,190.39-2.53,244.12-59,64.88-156.13,81.95-151.11,67.51,22.43-48.53,68.68-83.67,86-135.86,22-60.06,21.37-179.83,12.45-186.32C1245.36,400.85,1180.19,410.72,1178.19,387.29Z"/><path class="cls-2" d="M1669.72,745.48c11.69-14.35-13.2-53.33-17.72-64-43.28-86.16-128.43-143.61-223.85-154.52-30.1-27.83-54.71-59.81-87.42-86.68,26.42-14,79.57,59.16,92.4,65.92,160.35,37.72,255.66,135.85,263.75,292l-2.32.67c-99.3-122-201-136-247.35-225.38,12.81-4,19.17,8.09,28,16.33C1535.08,649.19,1606.73,689.53,1669.72,745.48Z"/><path class="cls-2" d="M536.76,1180.07c40.53,17.45,76,49.1,108.18,79.89,12.87,15.08,66.62,81.8,33.77,78.68-13-.82-20.91-5.56-31.07-14.78-118.25-95.45-150-96.32-222.36-134.19,14.11-7.35,49.42,14.75,60,16.77,109.34,44.75,128.45,73.72,173.29,97.82C593.05,1208,536.45,1195.84,536.76,1180.07Z"/><path class="cls-2" d="M1029.68,1763.52c-118.43-262.09-168.64-243.73-140.88-260,7.27-18.28,30.85,4.59,40.29,10,56.4,40,104.14,133.78,108.27,161.47l-2,.83c-39-57.75-84.25-138.28-128.79-158,59.41,85.85,103.06,158.36,125.8,243.89Z"/><path class="cls-2" d="M1164.87,1309.57c-3.16,14.07-64.17,8.18-70.23,11.79-42.88,5.31-84.45,6.78-117.81,19.77l.48,2.73c125.15-6,233.87,14.59,231.8,25-84.78-5.89-176.14-21.36-263-3.67-6.5.44-13.87,3.85-18.27-.53C901.93,1313.34,1147.71,1304.46,1164.87,1309.57Z"/><path class="cls-2" d="M513.17,1732c43.35-86.62,133.17-144.48,192.61-221.4,21.71,11.58-50.62,88.28-52,98.63-30.36,44.2-56.21,85.12-81.43,133.28-4.66-32.82,43.78-94.07,43.86-113.29-40.41,24.92-68,68.77-100.63,103.64Z"/><path class="cls-2" d="M846.87,1791.17c-21.3-47.23-24.56-101.58-37.24-151.91l-2.59.14c-4.34,53.54,1.61,107.46,1.69,161.83-26.36-49.19-13.88-229.37-15.09-242.34-.27-11.11,5.42-26.12,17.21-16.08,6,15.83,3.2,33.54,6.85,51,10.64,66.26,22.67,129.88,32.17,196.36Z"/><path class="cls-2" d="M646.57,1373.32c-55.45-39.26-123.56-56.2-188.36-75.76,51.88-9.89,206.14,59.42,216.13,77.66,4,3.86-20.48,21.52-23.07,19.23-31.14-10.55-59.67-21-90.73-30-44.58-14.28-89.51-15.37-135-22.55,36-26.3,208.76,30.89,219.89,33.68C645.8,1374.84,646.18,1374.08,646.57,1373.32Z"/><path class="cls-2" d="M626.64,1434.66c-66.73,32.91-133.42,66-192.64,112.43-1.79-14.8,36-35.58,39.87-45.26-42.27,5.23-78.09,39.3-114.64,62.38,21.17-67,261.69-142.2,267.18-132Z"/><path class="cls-2" d="M1145.45,1486.4c-58.4-9.27-117-35.48-177.29-25.25,33.08,18.92,76.08,22.94,106.58,48.66-.23.7-.46,1.4-.7,2.1-49.63-14-98.42-27.86-151.34-41.21-40.27-65.54,210-10.16,223.74,12.55Z"/><path class="cls-2" d="M911.24,1046c-5.57,37.86-24.2,71.61-31.73,110,35.8-35.45,52.35-85.26,82.55-126.36,1.26,36-79.27,149.12-84.28,156.11-121.24,221.34,12.62-104.65,30.57-140.91Z"/><path class="cls-2" d="M1581.31,2464.55c17.76-185-24.88-269.39-10-372.53l2.52-.35c6.51,92.8,25.56,156.27,26.16,207C1603.38,2362.5,1600.4,2454,1581.31,2464.55Z"/><path class="cls-2" d="M760.7,2455.59c-76.29-15.89-150.36-53.26-212.93-100.89-50.68-34.58-29.92-50.52-5.72-24.71C704.71,2448.85,758.47,2415.13,760.7,2455.59Z"/><path class="cls-2" d="M770.9,1079.54c-.63,37.44-7.47,77.28,1.92,115.26,20.84-33.63,19.11-85.28,43.33-121.82,2.1,42.91-21.46,91.1-26.12,136.09-19.72,176.5-47.36-102.1-22.09-130.07Z"/><path class="cls-2" d="M175.5,1750c9.63,10.67,8.36,24.29,12.59,38.57,24.21,130.75,54.5,179.5,101.1,256.31-10.9,7.08-27.48-28.69-32.84-33.28C196.14,1927.31,176,1838.5,175.5,1750Z"/><path class="cls-2" d="M1144.93,2458.19c7.83-34.4,52.35-33.34,78.11-50.64,36.84-17.83,67.27-40.14,101.23-61.83C1365.06,2375.5,1155.79,2462.63,1144.93,2458.19Z"/><path class="cls-2" d="M951.67,1775.77c-67.18-249.08-104.74-238.72-98.64-260.69,52.72,12.27,106.66,232.14,102.29,259.84Z"/><path class="cls-2" d="M398.12,1614.4c44.9-73,219.52-158.55,259.32-162.07.31.86.63,1.71.94,2.57C567.61,1501,479,1550.74,400.11,1616Z"/><path class="cls-2" d="M447,1626.34c21.29-49.9,241.85-186.48,237.61-160.3-79.14,51.35-162.37,100.52-235.67,162.36C448.24,1627.71,447.59,1627,447,1626.34Z"/><path class="cls-2" d="M683.35,1489.48c-67.7,65.65-137.77,129.52-205.45,196.61C483.54,1649.08,680.18,1464.76,683.35,1489.48Z"/><path class="cls-2" d="M1150.52,1273.69c-216.44,26-231.25,68.23-237.59,38.31,108.27-43.56,224.15-52.72,238-40.46Z"/><path class="cls-2" d="M571.79,1121.38c44.34,26.83,162,176,132.35,194.06C595.37,1132.87,566.35,1136.12,571.79,1121.38Z"/><path class="cls-2" d="M873.33,2476.54c173.42,18.5,201-57.82,238.36-70.13l1.33,1.8c-50.67,68.29-169.33,111.62-240.21,71C873,2478.33,873.16,2477.43,873.33,2476.54Z"/><path class="cls-2" d="M983.27,1093.29C873.1,1238.21,879,1283,852.21,1270.77,868.71,1227,969.68,1072.83,983.27,1093.29Z"/><path class="cls-2" d="M896.65,1768.89c-39.25-218.21-67-203.26-64.79-232.62,39.81-12.57,77,213.83,66.73,232.1Z"/><path class="cls-2" d="M600.61,1084.41c47.44,35.14,132.54,191.71,116,207.88C678.1,1223.52,641.7,1153.36,598.93,1086Z"/><path class="cls-2" d="M1287.06,399.25c134-22.75,132.64-34.78,212.89-104.37C1485.09,365,1341.48,422,1287.06,399.25Z"/><path class="cls-2" d="M728.11,1742.42c-17.27-4.55,15.82-144.2,15.93-145.94,21.74-78.9,38.88-60.27,31.82-41.27C754.55,1617.18,744.07,1678.85,728.11,1742.42Z"/><path class="cls-2" d="M1152.11,1418c-67.91-.09-139.13-11.38-208.85-6.81-53.34-36,207-4.11,209.24,3.73Z"/><path class="cls-2" d="M1027.16,1123.16c-41.16,48.37-84.71,96.59-124.45,147.31-55.45,13.76,113.09-152.11,122.83-149.55Z"/><path class="cls-2" d="M1322.58,675.45c38.91-104.16,18.73-140.81,11.84-208.43,39.58,38.6,30.46,183.33-9.62,209.35Z"/><path class="cls-2" d="M1383.49,2120.29c-27.47,104.56-7.71,170.29-10.81,229.27-26.48-62.43-23.75-188.09,8.08-230.8Z"/><path class="cls-2" d="M1626.67,681.14c-90.25-76.1-109.36-87.71-173.36-121.86-2.93-16.08,32.75,3.21,38.77,5.44,54.89,26.91,101.16,65.55,136.74,114.4Z"/><path class="cls-2" d="M1556.86,1373.23c-30,123.4-47.74,206-61.78,232.29l-2.49-.63c19.9-90.49,33.43-199.44,61.13-233Z"/><path class="cls-2" d="M350.65,2411.77c55.06-44.65,102.63-96.94,139.7-157.59l2.08.72C494.1,2307,377.46,2420,350.65,2411.77Z"/><path class="cls-2" d="M734.17,625.29c16.52-41.58,209.1-27.69,223.84-3.9C883.58,607.83,809.57,605.76,734.17,625.29Z"/><path class="cls-2" d="M1516.86,1600.45c30.59-64.73,53.47-133.45,64-205.11,28.77,32.33-44.21,194.54-60.85,206.85Z"/><path class="cls-2" d="M1398.26,997c44.44-95.06,86.26-183,98.9-190.11-27.36,78.54-68.26,163.87-96.22,191.07Z"/><path class="cls-2" d="M799.68,1253.07c-16.3-21.49,52.47-206.39,57.79-201.33l2.06,1.19C838.24,1118.44,826,1190.19,799.68,1253.07Z"/><path class="cls-2" d="M624.72,2102.36c59.94-2.71,164,38,167.24,62.58-54.23-26.4-111-39.75-168.11-60.18Z"/><path class="cls-2" d="M651.23,1091.36c22,14.41,118.44,218.22,73.1,170C676.55,1135.75,650.28,1106.16,651.23,1091.36Z"/><path class="cls-2" d="M467.18,2244.94c8,34.47-107.47,149.29-121.1,143.18C385.24,2342.47,431,2295.92,467.18,2244.94Z"/><path class="cls-2" d="M1661.21,1048.49c-31.12-50.89-63-105.57-92.44-158.23C1596.75,892,1672.12,1043.59,1661.21,1048.49Z"/><path class="cls-2" d="M1540.67,1368.08c-24.51,53.75-34.14,111-47.05,168.15C1472.83,1506.1,1521.78,1368.49,1540.67,1368.08Z"/><path class="cls-2" d="M1511.74,1161.15c-3.28-8.16,45-96,60.15-96.39C1577.32,1080.19,1513.11,1159.14,1511.74,1161.15Z"/><path class="cls-2" d="M1570.82,1305.81c-2.37,20.51-10.54,39.65-10.6,62.39-22.94-12.13-2-52.15,8.29-63.58Z"/><path class="cls-1" d="M383.18,639.72C492.87,508.91,579.86,538.3,683,480.35c4.87,9.41-7.2,15.31-11.87,24C529.7,679.26,365.64,595.05,382.42,774c3.75,69.73,17,137.46,50,199.25,5.23,10.71,12.63,18.46-5.93,26.12-8.87,4.63-10.29,2.48-17.38-8.66-27.41-52.08-29.42-53.26-76.93-56.25C235.1,941.66,190,1045.55,110,1089c-11.37-21.36,25.58-83,30.63-91.74,68.1-109.29,172.1-115.4,230.81-92,4.94-17.68-8.51-35.72-10.93-54.41-5.23-14,3.54-32.84-13.79-40.22-143.78-66.2-203.89-195-211.3-333.1,11.73,6.41,15.89,18.6,23,30.09C245.64,662.9,312,701.77,353.71,771.75c5.37-1.53,6.41-4.06,5.86-9.82-13.16-87.68,23.91-174.15,40.9-259.59,23-154.09-210.41-215.91-171-353.64,29.39,56.9,74.77,73.88,113.49,105.47,114.93,99.22,68.88,216.88,88.06,206,89.94-146,148.32-179.41,258.22-248.73,96.22-161.16,220.64-103.56,289.91-104-14.08,18.74-86.68,30.63-97.79,38.65-59.78,22-111.5,63.7-176.5,71.65,33.29-51.63,97-75.77,151.29-100.32-52.56-10.31-145.77,64.05-163.25,100.53-1.45,6.28,4.9,15.61-2.38,18-28,7.67-69.66,28.64-67.36,42.22,69,7.26,175.13,45.41,182.45,110.14-86.33-46.11-164.27-12.71-217.82-86C519,325,410.08,525.33,411.22,571.2c24.12-3.43,51.92-98.61,63.62-108.22C591.38,274.58,580,338,602.62,343.5c88,53.74,155.93,15.15,226.4,85.07,14.81-33.36-41.86-110.9-65-122.57-84.31-49.88-76.65-23.45-102.61-40.76,63.39-42.69,161.73-18.8,216,11.81,47.1,44.51,52.39,93.9,64.22,126.14-170.4,51.29-267,187.35-312.41,338.17-41,183.26-16.85,229-29.62,232.3-115-28.51-132.52,20.17-144.58-1.64-54.2-92.68-62.62-229.51-46.57-268,22-50.13,116.18-63.35,142.59-80.49,76.53-41.37,152.82-101.35,171.82-190l-2.2-1.41c-75.05,78-192.13,64-274.83,126.6C414.46,576.14,374.07,625.23,383.18,639.72ZM385,667C502.73,554.39,584,568.7,632.32,521.19,552.89,541.14,405.89,594.27,385,667ZM152.89,1024.74c78.2-81.48,110.58-114,214-103.76C300.35,866.5,162.42,956,152.89,1024.74Zm181.16-244.4c6.29-31-95.36-109.76-99.45-120.79-39-39-44.83-61.4-65.89-83.59C197.23,660,276.2,715.86,334.05,780.34ZM253.8,214.14c7.09,13.81,21.25,25.48,32,38.08C403.36,365.93,394.47,416.15,410.55,414.44,414.53,355.28,259.05,201.17,253.8,214.14ZM740.33,332.26c-22-22.26-132.51-41.88-135.28-32.73C643.89,318.41,722.27,330.56,740.33,332.26Z"/><path class="cls-1" d="M1074.92,514.54c-207-131.71-57.87-255.24-317.49-289.48,26.47-31.72,137.54,23.36,153.62,37.2,13.51,7.93,29.14,3.12,43.59,12.46,19.55,10.73,41.37,6.48,62.69,13.79,69.15,26,113,89,163,140.24-17.71,14.71-25.71-3.94-37.12-15.76-15.87-16.56-32.74-30.22-52.3-43.23-20.55-13.3-40.48-20.18-64.25-26.55-24.37-17.28-39.66-44.39-69-56-2,4,.4,7.48,3.08,9.37,39.72,34.48,74.31,78,78,133C1047.2,459.54,1070.52,481.62,1074.92,514.54Zm-54.76-63.73,2.65-1.31c-21.59-36.85-43.58-75.39-67-112.25C949.66,365.65,1011.13,442.3,1020.16,450.81Zm-59.5-135.68-2.67,1.8c18.33,31.93,36.6,65.65,59.58,96C1018.87,384.84,972.07,324.08,960.66,315.13Z"/><path class="cls-1" d="M1037.4,363.85c86.51,13.14,138.59,109.86,138,192.62-26.71-19.2-55.73-35.86-82.74-56C1062.8,454.63,1049.79,408.74,1037.4,363.85ZM1090.3,399c-12.81,47,53.73,110.14,71,133.25C1146.12,488.3,1112,454.76,1097.73,410,1095.85,405.75,1096.77,400.54,1090.3,399Z"/><path class="cls-1" d="M350.13,2288.14c-55.87,100.48-42.88,106.73-60.95,134.51-30.2,23.36-92.28,32.6-111.86,27.85-8-3.48,48.05-67.71,47.1-71.72,50.17-71,71.37-68.31,124-92.19Z"/><path class="cls-1" d="M816.56,1455.65c-10.73-36.06-40.1-33.15-37.21-23.13,43.49,27.51-1.88,53.25-13.63,24.84-2.11-3.21-3.19-3.73-5.54-2.82-15.74,16.2-47.5,14-41.65-14.13,34.43,24.65,60.55-3.47,49.62-26l-2.41-.11c-18.26,39.6-45.91,17-25.85-17-19.8-27.06,1-48.44,22.93-24.87,7.85-7.88-3.46-14.36-3.32-24.93,4.67-18.73,21.51-7.09,26.13,7.41,26.69-38.77,24.15,3.81,41.79-.58,18-5.94,24.94,21.63,9.17,22-14.32-1.09-20.5-20.34-36.06-9.37,37.63,21.46,12.63,44.12-1,38.52-9.56-4.23-15.43-43.49-21-9.84,9,31.84,28,25.41,48,18C850.65,1425.47,836.48,1449.66,816.56,1455.65Z"/><path class="cls-1" d="M869.79,1350.27c34-.19,17.74,38.52-8.15,22.06-4.29-10.94-.48-25.39-16-29.23-14.63.94-45.23-18.39-27.1-30,29.18-8,17,21.9,26.15,23.58C863.51,1323.94,865.09,1331.19,869.79,1350.27Z"/><path class="cls-1" d="M793.5,1484.88c7.68-8.06,18.94-26.94,29.78-20.46C851.3,1474.5,818.79,1507.61,793.5,1484.88Z"/><path class="cls-1" d="M724.54,1402.22c-7.74,20.2-27.81,20.55-27.13-1.13C701.75,1380.8,724.61,1377,724.54,1402.22Z"/><path class="cls-1" d="M757.08,1473.93c10.5,7.9,21.54,7.34,33.1,12.94C785.22,1510.09,745.06,1497.68,757.08,1473.93Z"/><path class="cls-1" d="M854.68,1405.3c1.18,16.45-20.73,5.1-22.92-4.85C830.65,1371.87,855.41,1386.3,854.68,1405.3Z"/><path class="cls-1" d="M869.6,1419.12c-.33-6.86-1-16.5-1.05-24.26C879.59,1372.93,901.2,1423.59,869.6,1419.12Z"/><path class="cls-1" d="M765,1326.33c-6,5-14.57,8.36-19.68,16.51C725.79,1349.21,744.39,1311.83,765,1326.33Z"/><path class="cls-1" d="M797.79,1318.25c.33,9.09-14.78,14.19-16.68,2.82C781.06,1311.77,796.06,1307.21,797.79,1318.25Z"/><path class="cls-2" d="M385,667c22.67-78.16,189.52-131.92,247.36-145.78-8.11,13.38-26.21,16.81-39.94,25.22C464.54,597.65,461.15,600.93,385,667Z"/><path class="cls-2" d="M152.89,1024.74C165.08,951,302.94,868.32,366.87,921,256.93,908.16,219.7,956.61,152.89,1024.74Z"/><path class="cls-2" d="M334.05,780.34C270.34,713.12,186,641.83,168.71,576,247,691.2,345.65,752.78,334.05,780.34Z"/><path class="cls-2" d="M253.8,214.14c12.57-4.13,22.73,16.77,31,22.1,57.27,54.38,125.47,129.55,125.71,178.2-4.93.24-7.64-3.09-8.81-6.63C350.32,295.68,287.66,266.21,253.8,214.14Z"/><path class="cls-2" d="M740.33,332.26c-49-6.07-130.15-24.89-135.28-32.73C632.44,289.22,736.46,321.19,740.33,332.26Z"/><path class="cls-2" d="M1020.16,450.81c-30.84-32.51-73.3-101.94-64.31-113.56,23.26,36.63,44.71,74.32,67,112.25Z"/><path class="cls-2" d="M960.66,315.13c24,20.76,63.58,88.77,56.91,97.84-22.47-29.49-40.69-63.29-59.58-96Z"/><path class="cls-2" d="M1090.3,399c38.26,76.67,63,107.26,71,133.25C1131.06,496.51,1077.31,437.4,1090.3,399Z"/></svg>